<svg xmlns="http://www.w3.org/2000/svg" xmlns:xlink="http://www.w3.org/1999/xlink" width="36" height="36" preserveAspectRatio="xMidYMid meet" viewBox="0 0 36 36" style="-ms-transform: rotate(360deg); -webkit-transform: rotate(360deg); transform: rotate(360deg);"><path class="clr-i-outline clr-i-outline-path-1" d="M9.6 22.88V10.6h14.8L25.98 9H8v13.88h1.6z" fill="#870eac"/><path d="M6 7h24v16h2V6.5A1.5 1.5 0 0 0 30.5 5h-25A1.5 1.5 0 0 0 4 6.5V23h2z" class="clr-i-outline clr-i-outline-path-2" fill="#870eac"/><path d="M1 25v3.4A2.6 2.6 0 0 0 3.6 31h28.74a2.6 2.6 0 0 0 2.6-2.6V25zm32 3.4a.6.6 0 0 1-.6.6H3.56a.6.6 0 0 1-.6-.6v-1.87h9.95a1.64 1.64 0 0 0 1.5 1h7.13a1.64 1.64 0 0 0 1.5-1H33z" class="clr-i-outline clr-i-outline-path-3" fill="#870eac"/><rect x="0" y="0" width="36" height="36" fill="rgba(0, 0, 0, 0)" /></svg>