<svg xmlns="http://www.w3.org/2000/svg" xmlns:xlink="http://www.w3.org/1999/xlink" width="1024" height="1024" preserveAspectRatio="xMidYMid meet" viewBox="0 0 1024 1024" style="-ms-transform: rotate(360deg); -webkit-transform: rotate(360deg); transform: rotate(360deg);"><path d="M896 640q53 0 90.5 37.5T1024 768v128q0 53-37.5 90.5T896 1024H128q-53 0-90.5-37.5T0 896V768q0-53 37.5-90.5T128 640h320V512H128q-53 0-90.5-37.5T0 384V256q0-53 37.5-90.5T128 128h320V64q0-27 18.5-45.5t45-18.5T557 18.5T576 64v64h320q53 0 90.5 37.5T1024 256v128q0 53-37.5 90.5T896 512H576v128h320zM191.5 768q-26.5 0-45 19T128 832.5t18.5 45t45 18.5t45.5-18.5t19-45t-19-45.5t-45.5-19zm0-512q-26.5 0-45 19T128 320.5t18.5 45t45 18.5t45.5-18.5t19-45t-19-45.5t-45.5-19zM832 384q26 0 45-18.5t19-45t-19-45.5t-45-19H448q-27 0-45.5 19T384 320.5t18.5 45T448 384h384zM448 768q-27 0-45.5 19T384 832.5t18.5 45T448 896h384q26 0 45-18.5t19-45t-19-45.5t-45-19H448z" fill="#870eac"/><rect x="0" y="0" width="1024" height="1024" fill="rgba(0, 0, 0, 0)" /></svg>