<svg xmlns="http://www.w3.org/2000/svg" xmlns:xlink="http://www.w3.org/1999/xlink" width="256" height="256" preserveAspectRatio="xMidYMid meet" viewBox="0 0 256 256" style="-ms-transform: rotate(360deg); -webkit-transform: rotate(360deg); transform: rotate(360deg);"><path d="M246.49 108.666c.07-.099.141-.196.207-.298c.074-.113.142-.228.21-.343c.06-.103.12-.205.175-.31c.062-.119.117-.24.173-.36c.05-.11.103-.217.149-.33c.05-.121.092-.245.135-.369c.04-.115.084-.228.119-.345c.04-.136.072-.273.105-.41c.027-.108.058-.214.08-.324q.074-.368.113-.74c.006-.062.006-.125.011-.188c.016-.196.029-.392.03-.59c0-.02.003-.039.003-.059c0-.074-.009-.145-.011-.218a8.245 8.245 0 0 0-.025-.492c-.01-.11-.025-.22-.04-.33a7.606 7.606 0 0 0-.236-1.153q-.05-.18-.11-.355a8.114 8.114 0 0 0-.442-1.054a7.894 7.894 0 0 0-.17-.325a7.988 7.988 0 0 0-.202-.332c-.067-.105-.133-.21-.203-.312c-.073-.104-.15-.204-.228-.305c-.08-.101-.157-.203-.24-.301c-.026-.03-.047-.062-.072-.091l-56-64A8.001 8.001 0 0 0 184 32H72a8.001 8.001 0 0 0-6.02 2.732l-56 64c-.026.03-.048.061-.073.09c-.083.098-.16.2-.239.302c-.078.1-.156.202-.229.305a7.73 7.73 0 0 0-.202.311c-.07.11-.139.22-.203.333c-.06.107-.115.215-.17.324c-.059.117-.116.233-.17.352a8.219 8.219 0 0 0-.274.704q-.058.175-.108.353a8.006 8.006 0 0 0-.237 1.155c-.014.11-.03.218-.039.329c-.015.164-.02.328-.025.493c-.002.073-.011.144-.011.217l.003.06c.001.197.014.393.03.59c.005.062.005.125.011.187q.04.372.113.74c.022.11.053.216.08.324c.034.137.064.274.105.41c.035.117.078.23.119.345c.043.124.085.248.135.37c.046.112.098.22.15.33c.055.12.11.24.172.358c.056.106.116.208.176.311c.068.115.135.23.208.342c.067.103.138.2.21.3c.075.105.152.21.234.313c.08.1.163.196.247.291c.054.062.102.127.158.187l112 120c.114.122.237.232.357.345c.056.053.11.11.167.161a8.015 8.015 0 0 0 .81.634c.064.044.13.082.196.124a7.956 7.956 0 0 0 .729.416c.081.04.161.083.244.121a8.017 8.017 0 0 0 .96.375c.048.015.098.024.146.038a7.989 7.989 0 0 0 .89.204c.095.016.188.03.284.044a7.124 7.124 0 0 0 2.132 0a7.97 7.97 0 0 0 .284-.044a7.988 7.988 0 0 0 .888-.203c.05-.015.1-.024.148-.04a8.02 8.02 0 0 0 .96-.374c.083-.038.163-.08.244-.122a7.953 7.953 0 0 0 .727-.414c.066-.043.134-.081.199-.125a7.999 7.999 0 0 0 .808-.633c.059-.052.112-.11.17-.163c.119-.113.241-.223.355-.344l112-120c.056-.06.105-.126.16-.188c.083-.095.166-.19.245-.289c.082-.103.16-.21.236-.315zM73.539 112l30.533 74.639L34.41 112zm91.636 0L128 202.872L90.825 112zM95.128 96L128 53.145L160.872 96zm87.334 16h39.128l-69.662 74.638zm39.908-16h-41.333L144.22 48h36.151zM75.63 48h36.151L74.963 96H33.63z" fill="#626262"/><rect x="0" y="0" width="256" height="256" fill="rgba(0, 0, 0, 0)" /></svg>